<svg width="102" height="32" viewBox="0 0 102 32" fill="none" xmlns="http://www.w3.org/2000/svg">
<g clip-path="url(#clip0_56:4)">
<path d="M29.24 22.68C29.08 22.29 28.93 21.88 28.77 21.53L28.03 19.86L28 19.83C25.8 15.03 23.45 10.15 20.96 5.35001L20.86 5.15001C20.61 4.68001 20.36 4.16001 20.1 3.68001C19.78 3.11001 19.47 2.50001 18.96 1.92001C18.4629 1.31314 17.8372 0.824194 17.1282 0.48846C16.4192 0.152727 15.6445 -0.0214233 14.86 -0.0214233C14.0755 -0.0214233 13.3008 0.152727 12.5918 0.48846C11.8828 0.824194 11.2571 1.31314 10.76 1.92001C10.29 2.50001 9.93999 3.11001 9.61999 3.68001C9.36999 4.20001 9.11999 4.71001 8.85999 5.18001L8.75999 5.38001C6.30999 10.18 3.91999 15.06 1.71999 19.86L1.65999 19.92C1.43999 20.44 1.17999 20.98 0.92999 21.56C0.76999 21.91 0.60999 22.29 0.44999 22.71C0.0180221 23.8098 -0.119919 25.0032 0.0497617 26.1725C0.219442 27.3418 0.690887 28.4468 1.41763 29.3784C2.14438 30.3101 3.10135 31.0363 4.19421 31.4855C5.28708 31.9346 6.47814 32.0913 7.64999 31.94C8.77346 31.7921 9.85526 31.4179 10.83 30.84C12.13 30.11 13.38 29.05 14.78 27.52C16.18 29.05 17.46 30.11 18.73 30.85C19.9513 31.5669 21.3343 31.9625 22.75 32C24.3893 32.0068 25.9758 31.4203 27.2165 30.3487C28.4571 29.2772 29.2682 27.7929 29.5 26.17C29.7678 25.0038 29.6772 23.7839 29.24 22.67V22.68ZM14.88 24.34C13.16 22.14 12.04 20.12 11.66 18.39C11.5026 17.7489 11.4686 17.0838 11.56 16.43C11.63 15.92 11.82 15.47 12.08 15.09C12.68 14.22 13.73 13.68 14.88 13.68C15.4261 13.6633 15.9679 13.7825 16.4566 14.0269C16.9453 14.2712 17.3657 14.6331 17.68 15.08C17.94 15.48 18.13 15.92 18.19 16.43C18.29 17.01 18.25 17.68 18.09 18.39C17.71 20.09 16.59 22.13 14.88 24.34ZM27.62 25.82C27.5064 26.644 27.1788 27.4237 26.67 28.0817C26.1612 28.7397 25.4889 29.2528 24.72 29.57C23.96 29.89 23.12 29.98 22.3 29.89C21.5 29.79 20.7 29.53 19.88 29.05C18.5185 28.2085 17.2942 27.163 16.25 25.95C18.35 23.35 19.62 20.98 20.1 18.87C20.33 17.87 20.36 16.97 20.26 16.14C20.1351 15.3533 19.8418 14.6028 19.4 13.94C18.8956 13.2213 18.2223 12.6374 17.4394 12.2399C16.6565 11.8423 15.7879 11.6432 14.91 11.66C13.06 11.66 11.41 12.52 10.41 13.93C9.95983 14.5912 9.6689 15.3476 9.55999 16.14C9.42999 16.98 9.45999 17.91 9.71999 18.87C10.2 20.98 11.5 23.38 13.57 25.97C12.5435 27.2062 11.3164 28.2609 9.93999 29.09C9.10999 29.57 8.31999 29.82 7.51999 29.92C6.27587 30.0794 5.01914 29.7412 4.02295 28.9791C3.02676 28.217 2.37164 27.0925 2.19999 25.85C2.09999 25.05 2.16999 24.25 2.48999 23.35C2.58999 23.03 2.73999 22.71 2.89999 22.33C3.11999 21.81 3.37999 21.27 3.62999 20.73L3.66999 20.66C5.82999 15.89 8.18999 11.02 10.64 6.25001L10.74 6.05001C10.99 5.57001 11.24 5.06001 11.5 4.58001C11.76 4.07001 12.04 3.58001 12.4 3.18001C12.7116 2.80803 13.101 2.50888 13.5407 2.30362C13.9804 2.09837 14.4597 1.99199 14.945 1.99199C15.4302 1.99199 15.9096 2.09837 16.3493 2.30362C16.789 2.50888 17.1784 2.80803 17.49 3.18001C17.84 3.58001 18.13 4.07001 18.39 4.58001C18.64 5.06001 18.89 5.58001 19.15 6.05001L19.25 6.25001C21.69 11.02 24.05 15.89 26.25 20.66L26.28 20.69C26.54 21.21 26.76 21.79 27.01 22.29C27.17 22.68 27.33 22.99 27.43 23.32C27.62 24.22 27.72 25.02 27.62 25.82V25.82ZM41.54 24.12C40.7865 24.131 40.0401 23.9723 39.3563 23.6555C38.6725 23.3387 38.0688 22.872 37.59 22.29C36.514 21.05 35.943 19.4511 35.99 17.81C35.9735 16.1332 36.563 14.5069 37.65 13.23C38.1528 12.6406 38.7787 12.1686 39.4836 11.8473C40.1885 11.5259 40.9553 11.363 41.73 11.37C42.4589 11.3501 43.181 11.5158 43.8282 11.8517C44.4755 12.1875 45.0267 12.6825 45.43 13.29L45.53 11.72H48.45V23.8H45.52L45.42 22.04C45.0042 22.6887 44.4294 23.2203 43.7503 23.5843C43.0713 23.9483 42.3104 24.1328 41.54 24.12V24.12ZM42.3 21.24C42.88 21.24 43.39 21.08 43.87 20.79C44.31 20.47 44.67 20.05 44.95 19.54C45.2 19.03 45.33 18.42 45.33 17.74C45.369 17.1494 45.254 16.5588 44.9963 16.0259C44.7387 15.4931 44.3471 15.0362 43.86 14.7C43.3919 14.4084 42.8515 14.2538 42.3 14.2538C41.7485 14.2538 41.2081 14.4084 40.74 14.7C40.3 15.02 39.94 15.44 39.66 15.95C39.3955 16.5124 39.2655 17.1287 39.28 17.75C39.241 18.3406 39.356 18.9312 39.6136 19.4641C39.8713 19.9969 40.2628 20.4538 40.75 20.79C41.22 21.08 41.73 21.24 42.3 21.24ZM53.45 8.46001C53.45 8.81001 53.39 9.13001 53.23 9.39001C53.07 9.64001 52.85 9.87001 52.56 10.03C52.27 10.19 51.96 10.25 51.64 10.25C51.32 10.25 51 10.19 50.71 10.03C50.4357 9.87732 50.2051 9.657 50.04 9.39001C49.8851 9.10514 49.8092 8.78407 49.82 8.46001C49.82 8.10001 49.89 7.78001 50.04 7.53001C50.2 7.23001 50.43 7.05001 50.71 6.89001C51 6.73001 51.31 6.66001 51.64 6.66001C51.9583 6.65267 52.2731 6.72806 52.5535 6.8788C52.834 7.02954 53.0705 7.25048 53.24 7.52001C53.3855 7.81155 53.4576 8.13424 53.45 8.46001V8.46001ZM50.05 23.76V11.7H53.23V23.78H50.04L50.05 23.76ZM61.73 14.86V14.9C61.58 14.83 61.38 14.8 61.23 14.77C61.03 14.73 60.87 14.73 60.68 14.73C59.79 14.73 59.12 14.99 58.68 15.53C58.2 16.08 57.98 16.85 57.98 17.84V23.77H54.79V11.69H57.72L57.82 13.52C58.14 12.88 58.52 12.4 59.06 12.04C59.5971 11.6902 60.2295 11.5155 60.87 11.54C61.1 11.54 61.32 11.56 61.51 11.6C61.61 11.63 61.67 11.63 61.73 11.66V14.86V14.86ZM63.01 23.76V6.74001H66.19V13.24C66.64 12.66 67.15 12.21 67.79 11.86C68.8032 11.3632 69.9542 11.2223 71.0573 11.46C72.1604 11.6977 73.1513 12.3001 73.87 13.17C74.9483 14.4126 75.5195 16.0155 75.47 17.66C75.4865 19.3368 74.897 20.9632 73.81 22.24C73.3072 22.8294 72.6813 23.3014 71.9764 23.6227C71.2715 23.9441 70.5047 24.107 69.73 24.1C69.0011 24.12 68.279 23.9542 67.6318 23.6183C66.9845 23.2825 66.4333 22.7875 66.03 22.18L65.93 23.75L63.01 23.78V23.76ZM69.16 21.24C69.73 21.24 70.24 21.08 70.72 20.79C71.16 20.47 71.52 20.05 71.8 19.54C72.06 19.03 72.18 18.42 72.18 17.74C72.18 17.07 72.06 16.46 71.8 15.95C71.5374 15.4582 71.1684 15.0312 70.72 14.7C70.2519 14.4084 69.7115 14.2538 69.16 14.2538C68.6085 14.2538 68.0681 14.4084 67.6 14.7C67.15 15.02 66.8 15.44 66.51 15.95C66.2455 16.5124 66.1155 17.1287 66.13 17.75C66.091 18.3406 66.206 18.9312 66.4636 19.4641C66.7213 19.9969 67.1129 20.4538 67.6 20.79C68.07 21.08 68.58 21.24 69.16 21.24ZM76.67 23.77V11.69H79.6L79.7 13.26C80.0682 12.6582 80.5905 12.1657 81.2129 11.8334C81.8352 11.5011 82.5351 11.3411 83.24 11.37C84.0461 11.3561 84.8384 11.5801 85.5178 12.0141C86.1973 12.4481 86.7337 13.0728 87.06 13.81C87.41 14.57 87.6 15.51 87.6 16.56V23.8H84.41V16.98C84.41 16.14 84.22 15.48 83.84 14.99C83.46 14.51 82.94 14.25 82.28 14.25C81.8 14.25 81.38 14.35 81.01 14.57C80.66 14.8 80.37 15.09 80.15 15.5C79.9276 15.9145 79.8172 16.3798 79.83 16.85V23.77H76.67V23.77ZM89.19 23.77V6.73001H92.38V13.23C92.8121 12.6468 93.3742 12.1723 94.0216 11.8442C94.6691 11.5161 95.3842 11.3435 96.11 11.34C96.8635 11.329 97.6099 11.4878 98.2937 11.8046C98.9775 12.1214 99.5812 12.588 100.06 13.17C101.131 14.4125 101.698 16.0106 101.65 17.65C101.667 19.3269 101.078 20.9536 99.99 22.23C99.4872 22.8194 98.8613 23.2914 98.1564 23.6127C97.4515 23.9341 96.6847 24.097 95.91 24.09C95.1811 24.11 94.459 23.9442 93.8118 23.6083C93.1645 23.2725 92.6133 22.7775 92.21 22.17L92.12 23.74L89.19 23.77V23.77ZM95.37 21.24C95.95 21.24 96.46 21.08 96.93 20.79C97.38 20.47 97.73 20.05 98.02 19.54C98.27 19.03 98.4 18.42 98.4 17.74C98.439 17.1494 98.324 16.5588 98.0663 16.0259C97.8087 15.4931 97.4171 15.0362 96.93 14.7C96.4619 14.4084 95.9215 14.2538 95.37 14.2538C94.8185 14.2538 94.2781 14.4084 93.81 14.7C93.37 15.02 93.01 15.44 92.73 15.95C92.4509 16.5074 92.32 17.1273 92.35 17.75C92.311 18.3406 92.426 18.9312 92.6836 19.4641C92.9413 19.9969 93.3329 20.4538 93.82 20.79C94.29 21.08 94.77 21.24 95.37 21.24Z" fill="white"/>
</g>
<defs>
<clipPath id="clip0_56:4">
<rect width="102" height="32" fill="white"/>
</clipPath>
</defs>
</svg>