<svg width="102" height="33" viewBox="0 0 102 33" fill="none" xmlns="http://www.w3.org/2000/svg">
<path d="M29.2607 22.7014C29.1007 22.3114 28.9507 21.9014 28.7907 21.5514L28.0507 19.8814L28.0207 19.8514C25.8207 15.0514 23.4707 10.1714 20.9807 5.37143L20.8807 5.17143C20.6307 4.70143 20.3807 4.18143 20.1207 3.70143C19.8007 3.13143 19.4907 2.52143 18.9807 1.94143C18.4836 1.33456 17.8579 0.845617 17.1489 0.509884C16.4399 0.17415 15.6652 0 14.8807 0C14.0962 0 13.3215 0.17415 12.6125 0.509884C11.9035 0.845617 11.2778 1.33456 10.7807 1.94143C10.3107 2.52143 9.96071 3.13143 9.64071 3.70143C9.39071 4.22143 9.14071 4.73143 8.88071 5.20143L8.78071 5.40143C6.33071 10.2014 3.94071 15.0814 1.74071 19.8814L1.68071 19.9414C1.46071 20.4614 1.20071 21.0014 0.950711 21.5814C0.790711 21.9314 0.630711 22.3114 0.470711 22.7314C0.0387436 23.8312 -0.0991972 25.0246 0.0704832 26.1939C0.240164 27.3632 0.711609 28.4682 1.43836 29.3998C2.1651 30.3315 3.12207 31.0577 4.21494 31.5069C5.3078 31.9561 6.49886 32.1127 7.67071 31.9614C8.79418 31.8135 9.87599 31.4393 10.8507 30.8614C12.1507 30.1314 13.4007 29.0714 14.8007 27.5414C16.2007 29.0714 17.4807 30.1314 18.7507 30.8714C19.972 31.5883 21.3551 31.9839 22.7707 32.0214C24.4101 32.0282 25.9965 31.4417 27.2372 30.3701C28.4779 29.2986 29.2889 27.8143 29.5207 26.1914C29.7886 25.0252 29.6979 23.8053 29.2607 22.6914V22.7014ZM14.9007 24.3614C13.1807 22.1614 12.0607 20.1414 11.6807 18.4114C11.5233 17.7704 11.4893 17.1052 11.5807 16.4514C11.6507 15.9414 11.8407 15.4914 12.1007 15.1114C12.7007 14.2414 13.7507 13.7014 14.9007 13.7014C15.4468 13.6847 15.9886 13.8039 16.4773 14.0483C16.966 14.2926 17.3864 14.6545 17.7007 15.1014C17.9607 15.5014 18.1507 15.9414 18.2107 16.4514C18.3107 17.0314 18.2707 17.7014 18.1107 18.4114C17.7307 20.1114 16.6107 22.1514 14.9007 24.3614ZM27.6407 25.8414C27.5271 26.6654 27.1996 27.4452 26.6907 28.1031C26.1819 28.7611 25.5096 29.2742 24.7407 29.5914C23.9807 29.9114 23.1407 30.0014 22.3207 29.9114C21.5207 29.8114 20.7207 29.5514 19.9007 29.0714C18.5392 28.2299 17.315 27.1844 16.2707 25.9714C18.3707 23.3714 19.6407 21.0014 20.1207 18.8914C20.3507 17.8914 20.3807 16.9914 20.2807 16.1614C20.1558 15.3747 19.8625 14.6243 19.4207 13.9614C18.9163 13.2427 18.2431 12.6589 17.4601 12.2613C16.6772 11.8638 15.8086 11.6646 14.9307 11.6814C13.0807 11.6814 11.4307 12.5414 10.4307 13.9514C9.98055 14.6126 9.68962 15.369 9.58071 16.1614C9.45071 17.0014 9.48071 17.9314 9.74071 18.8914C10.2207 21.0014 11.5207 23.4014 13.5907 25.9914C12.5642 27.2276 11.3371 28.2823 9.96071 29.1114C9.13071 29.5914 8.34071 29.8414 7.54071 29.9414C6.2966 30.1008 5.03986 29.7627 4.04367 29.0005C3.04748 28.2384 2.39236 27.1139 2.22071 25.8714C2.12071 25.0714 2.19071 24.2714 2.51071 23.3714C2.61071 23.0514 2.76071 22.7314 2.92071 22.3514C3.14071 21.8314 3.40071 21.2914 3.65071 20.7514L3.69071 20.6814C5.85071 15.9114 8.21071 11.0414 10.6607 6.27143L10.7607 6.07143C11.0107 5.59143 11.2607 5.08143 11.5207 4.60143C11.7807 4.09143 12.0607 3.60143 12.4207 3.20143C12.7323 2.82945 13.1217 2.5303 13.5614 2.32505C14.0011 2.11979 14.4805 2.01342 14.9657 2.01342C15.451 2.01342 15.9303 2.11979 16.37 2.32505C16.8097 2.5303 17.1991 2.82945 17.5107 3.20143C17.8607 3.60143 18.1507 4.09143 18.4107 4.60143C18.6607 5.08143 18.9107 5.60143 19.1707 6.07143L19.2707 6.27143C21.7107 11.0414 24.0707 15.9114 26.2707 20.6814L26.3007 20.7114C26.5607 21.2314 26.7807 21.8114 27.0307 22.3114C27.1907 22.7014 27.3507 23.0114 27.4507 23.3414C27.6407 24.2414 27.7407 25.0414 27.6407 25.8414ZM41.5607 24.1414C40.8072 24.1525 40.0608 23.9937 39.377 23.6769C38.6932 23.3601 38.0895 22.8934 37.6107 22.3114C36.5348 21.0714 35.9637 19.4725 36.0107 17.8314C35.9942 16.1546 36.5837 14.5283 37.6707 13.2514C38.1735 12.662 38.7994 12.1901 39.5043 11.8687C40.2092 11.5473 40.976 11.3844 41.7507 11.3914C42.4796 11.3715 43.2017 11.5372 43.8489 11.8731C44.4962 12.209 45.0474 12.7039 45.4507 13.3114L45.5507 11.7414H48.4707V23.8214H45.5407L45.4407 22.0614C45.0249 22.7101 44.4501 23.2417 43.7711 23.6057C43.092 23.9698 42.3311 24.1542 41.5607 24.1414ZM42.3207 21.2614C42.9007 21.2614 43.4107 21.1014 43.8907 20.8114C44.3307 20.4914 44.6907 20.0714 44.9707 19.5614C45.2207 19.0514 45.3507 18.4414 45.3507 17.7614C45.3897 17.1708 45.2747 16.5802 45.0171 16.0474C44.7594 15.5145 44.3679 15.0576 43.8807 14.7214C43.4126 14.4298 42.8722 14.2752 42.3207 14.2752C41.7692 14.2752 41.2288 14.4298 40.7607 14.7214C40.3207 15.0414 39.9607 15.4614 39.6807 15.9714C39.4163 16.5339 39.2862 17.1501 39.3007 17.7714C39.2617 18.362 39.3767 18.9526 39.6344 19.4855C39.892 20.0184 40.2836 20.4752 40.7707 20.8114C41.2407 21.1014 41.7507 21.2614 42.3207 21.2614ZM53.4707 8.48143C53.4707 8.83143 53.4107 9.15143 53.2507 9.41143C53.0907 9.66143 52.8707 9.89143 52.5807 10.0514C52.2907 10.2114 51.9807 10.2714 51.6607 10.2714C51.3407 10.2714 51.0207 10.2114 50.7307 10.0514C50.4564 9.89874 50.2258 9.67842 50.0607 9.41143C49.9058 9.12656 49.8299 8.80549 49.8407 8.48143C49.8407 8.12143 49.9107 7.80143 50.0607 7.55143C50.2207 7.25143 50.4507 7.07143 50.7307 6.91143C51.0207 6.75143 51.3307 6.68143 51.6607 6.68143C51.979 6.67409 52.2938 6.74948 52.5742 6.90022C52.8547 7.05096 53.0912 7.2719 53.2607 7.54143C53.4062 7.83298 53.4783 8.15567 53.4707 8.48143ZM50.0707 23.7814V11.7214H53.2507V23.8014H50.0607L50.0707 23.7814ZM61.7507 14.8814V14.9214C61.6007 14.8514 61.4007 14.8214 61.2507 14.7914C61.0507 14.7514 60.8907 14.7514 60.7007 14.7514C59.8107 14.7514 59.1407 15.0114 58.7007 15.5514C58.2207 16.1014 58.0007 16.8714 58.0007 17.8614V23.7914H54.8107V11.7114H57.7407L57.8407 13.5414C58.1607 12.9014 58.5407 12.4214 59.0807 12.0614C59.6178 11.7116 60.2502 11.537 60.8907 11.5614C61.1207 11.5614 61.3407 11.5814 61.5307 11.6214C61.6307 11.6514 61.6907 11.6514 61.7507 11.6814V14.8814ZM63.0307 23.7814V6.76143H66.2107V13.2614C66.6607 12.6814 67.1707 12.2314 67.8107 11.8814C68.8239 11.3847 69.9749 11.2437 71.078 11.4814C72.1811 11.7191 73.172 12.3215 73.8907 13.1914C74.969 14.434 75.5402 16.0369 75.4907 17.6814C75.5072 19.3582 74.9177 20.9846 73.8307 22.2614C73.3279 22.8508 72.702 23.3228 71.9971 23.6442C71.2922 23.9655 70.5254 24.1284 69.7507 24.1214C69.0218 24.1414 68.2997 23.9756 67.6525 23.6398C67.0052 23.3039 66.454 22.8089 66.0507 22.2014L65.9507 23.7714L63.0307 23.8014V23.7814ZM69.1807 21.2614C69.7507 21.2614 70.2607 21.1014 70.7407 20.8114C71.1807 20.4914 71.5407 20.0714 71.8207 19.5614C72.0807 19.0514 72.2007 18.4414 72.2007 17.7614C72.2007 17.0914 72.0807 16.4814 71.8207 15.9714C71.5581 15.4797 71.1892 15.0526 70.7407 14.7214C70.2726 14.4298 69.7322 14.2752 69.1807 14.2752C68.6292 14.2752 68.0888 14.4298 67.6207 14.7214C67.1707 15.0414 66.8207 15.4614 66.5307 15.9714C66.2663 16.5339 66.1362 17.1501 66.1507 17.7714C66.1117 18.362 66.2267 18.9526 66.4844 19.4855C66.742 20.0184 67.1336 20.4752 67.6207 20.8114C68.0907 21.1014 68.6007 21.2614 69.1807 21.2614ZM76.6907 23.7914V11.7114H79.6207L79.7207 13.2814C80.0889 12.6796 80.6112 12.1871 81.2336 11.8548C81.8559 11.5225 82.5558 11.3626 83.2607 11.3914C84.0668 11.3775 84.8591 11.6015 85.5386 12.0355C86.218 12.4695 86.7544 13.0942 87.0807 13.8314C87.4307 14.5914 87.6207 15.5314 87.6207 16.5814V23.8214H84.4307V17.0014C84.4307 16.1614 84.2407 15.5014 83.8607 15.0114C83.4807 14.5314 82.9607 14.2714 82.3007 14.2714C81.8207 14.2714 81.4007 14.3714 81.0307 14.5914C80.6807 14.8214 80.3907 15.1114 80.1707 15.5214C79.9483 15.9359 79.838 16.4012 79.8507 16.8714V23.7914H76.6907ZM89.2107 23.7914V6.75143H92.4007V13.2514C92.8328 12.6682 93.3949 12.1937 94.0424 11.8656C94.6898 11.5376 95.4049 11.3649 96.1307 11.3614C96.8843 11.3504 97.6306 11.5092 98.3144 11.826C98.9982 12.1428 99.6019 12.6095 100.081 13.1914C101.151 14.4339 101.718 16.032 101.671 17.6714C101.688 19.3484 101.098 20.975 100.011 22.2514C99.5079 22.8408 98.882 23.3128 98.1771 23.6342C97.4722 23.9555 96.7054 24.1184 95.9307 24.1114C95.2018 24.1314 94.4797 23.9656 93.8325 23.6298C93.1852 23.2939 92.634 22.7989 92.2307 22.1914L92.1407 23.7614L89.2107 23.7914ZM95.3907 21.2614C95.9707 21.2614 96.4807 21.1014 96.9507 20.8114C97.4007 20.4914 97.7507 20.0714 98.0407 19.5614C98.2907 19.0514 98.4207 18.4414 98.4207 17.7614C98.4597 17.1708 98.3447 16.5802 98.0871 16.0474C97.8294 15.5145 97.4379 15.0576 96.9507 14.7214C96.4826 14.4298 95.9422 14.2752 95.3907 14.2752C94.8392 14.2752 94.2988 14.4298 93.8307 14.7214C93.3907 15.0414 93.0307 15.4614 92.7507 15.9714C92.4716 16.5288 92.3407 17.1488 92.3707 17.7714C92.3317 18.362 92.4467 18.9526 92.7044 19.4855C92.962 20.0184 93.3536 20.4752 93.8407 20.8114C94.3107 21.1014 94.7907 21.2614 95.3907 21.2614Z" fill="#E51D56"/>
</svg>
