<svg width="32" height="32" viewBox="0 0 32 32" fill="none" xmlns="http://www.w3.org/2000/svg">
<path d="M16 0.700012C7.56301 0.700012 0.700012 7.56301 0.700012 16C0.700012 24.437 7.56301 31.3 16 31.3C24.437 31.3 31.3 24.437 31.3 16C31.3 7.56301 24.437 0.700012 16 0.700012V0.700012ZM16 28.7C11.979 28.7 8.39501 26.816 6.06701 23.89C7.68862 21.7682 9.95071 20.2253 12.518 19.49C11.5936 18.9028 10.8324 18.0918 10.3048 17.1321C9.77726 16.1724 9.50044 15.0951 9.50001 14C9.50001 10.416 12.416 7.50001 16 7.50001C19.584 7.50001 22.5 10.416 22.5 14C22.4991 15.0953 22.222 16.1727 21.6943 17.1324C21.1666 18.0922 20.4053 18.9034 19.481 19.491C22.0488 20.2258 24.3114 21.7688 25.933 23.891C23.605 26.816 20.021 28.7 16 28.7Z" fill="black"/>
</svg>
