<svg width="16" height="16" viewBox="0 0 16 16" fill="none" xmlns="http://www.w3.org/2000/svg">
<path d="M8.002 0.25C10.06 0.255827 12.0315 1.07784 13.4841 2.53567C14.9367 3.99349 15.7516 5.96804 15.75 8.026C15.7431 10.0372 14.9546 11.9669 13.5512 13.4074C12.1478 14.848 10.2393 15.6866 8.229 15.746L7.983 15.75C5.97144 15.7457 4.04035 14.9595 2.59786 13.5575C1.15537 12.1556 0.31451 10.2476 0.253 8.237L0.25 7.992C0.252121 5.93761 1.06985 3.96812 2.52346 2.51639C3.97707 1.06465 5.94761 0.249469 8.002 0.25V0.25ZM9.951 8.75H6.048C6.203 11.647 7.224 14.093 7.934 14.243L8.002 14.25C8.682 14.248 9.722 11.885 9.934 9.02L9.951 8.75ZM14.206 8.75H11.454C11.363 10.71 10.924 12.533 10.266 13.826C11.2809 13.4306 12.175 12.7771 12.8599 11.9302C13.5448 11.0832 13.9967 10.0722 14.171 8.997L14.206 8.75ZM4.545 8.75H1.795C1.93102 9.87243 2.36864 10.937 3.06134 11.8306C3.75404 12.7242 4.67592 13.4134 5.729 13.825C5.114 12.617 4.693 10.95 4.567 9.139L4.545 8.749V8.75ZM5.733 2.174L5.618 2.22C4.5918 2.64383 3.69685 3.33309 3.02501 4.21704C2.35318 5.10099 1.92865 6.14779 1.795 7.25H4.545C4.63 5.42 5.016 3.71 5.604 2.44L5.733 2.174ZM7.995 1.75C7.293 1.752 6.211 4.262 6.048 7.25H9.952C9.796 4.347 8.774 1.907 8.06 1.756L7.995 1.749V1.75ZM10.275 2.182L10.298 2.232C10.941 3.52 11.367 5.316 11.455 7.25H14.203C14.0644 6.13 13.6262 5.06812 12.9348 4.17621C12.2433 3.2843 11.3241 2.59538 10.274 2.182H10.275Z" fill="#0F0F0F"/>
</svg>
